<svg width="428" height="87" viewBox="0 0 428 87" fill="none" xmlns="http://www.w3.org/2000/svg">
<path d="M409.932 50.6781L427.024 74.0761H415.599L405.445 60.0731C404.862 59.2698 403.666 59.2675 403.08 60.0685L392.841 74.0761H381.325L398.508 50.5868L382.239 28.377H393.663L402.992 41.1934C403.576 41.9958 404.773 41.9958 405.357 41.1934L414.685 28.377H426.201L409.932 50.6781Z" fill="black"/>
<path d="M373.901 67.1273C369.27 71.7582 363.573 74.0736 356.81 74.0736C350.046 74.0736 344.349 71.7582 339.718 67.1273C335.027 62.4355 332.681 56.7384 332.681 50.0358C332.681 43.3333 335.027 37.6361 339.718 32.9443C344.349 28.3135 350.046 25.998 356.81 25.998C363.573 25.998 369.27 28.3135 373.901 32.9443C378.593 37.6361 380.939 43.3333 380.939 50.0358C380.939 56.7384 378.593 62.4355 373.901 67.1273ZM342.552 50.0358C342.552 54.1792 343.923 57.6219 346.665 60.3638C349.407 63.1058 352.788 64.4768 356.81 64.4768C360.831 64.4768 364.213 63.1058 366.955 60.3638C369.697 57.6219 371.068 54.1792 371.068 50.0358C371.068 45.8924 369.697 42.4497 366.955 39.7078C364.213 36.9658 360.831 35.5949 356.81 35.5949C352.788 35.5949 349.407 36.9658 346.665 39.7078C343.923 42.4497 342.552 45.8924 342.552 50.0358Z" fill="black"/>
<path d="M304.732 25.9993C311.008 25.9993 316.37 28.3147 320.819 32.9455C325.267 37.5764 327.491 43.2735 327.491 50.037C327.491 56.8005 325.267 62.4976 320.819 67.1285C316.37 71.7593 311.008 74.0748 304.732 74.0748C297.786 74.0748 292.455 71.4851 288.738 66.3059V72.8866H278.867L278.867 12.0079H288.738V33.6767C292.516 28.5584 297.847 25.9993 304.732 25.9993ZM292.851 60.5478C295.593 63.2898 299.035 64.6607 303.179 64.6607C307.322 64.6607 310.765 63.2898 313.507 60.5478C316.249 57.7449 317.62 54.2413 317.62 50.037C317.62 45.8327 316.249 42.3596 313.507 39.6176C310.765 36.8147 307.322 35.4133 303.179 35.4133C299.035 35.4133 295.593 36.8147 292.851 39.6176C290.109 42.3596 288.738 45.8327 288.738 50.037C288.738 54.1804 290.109 57.684 292.851 60.5478Z" fill="black"/>
<path d="M264.329 27.971C264.822 27.971 265.283 28.2201 265.553 28.6335L271.33 37.4764H255.201V59.412C255.201 61.3009 255.628 62.6719 256.481 63.5249C257.334 64.317 258.583 64.774 260.228 64.8959C261.934 64.9568 267.731 64.9264 270.229 64.8045V73.6701C262.673 74.5841 253.556 73.9443 250.266 71.7508C246.975 69.4963 245.33 65.3834 245.33 59.412V37.4764L245.33 27.971L245.33 12.998L255.201 12.9981V27.971H264.329Z" fill="black"/>
<path d="M197.498 27.1875C202.799 27.1875 207.034 28.8936 210.202 32.3058C213.432 35.6571 215.046 40.227 215.046 46.0156V74.0749H205.175V47.0209C205.175 43.6087 204.261 40.9886 202.433 39.1607C200.605 37.3327 198.107 36.4187 194.939 36.4187C191.344 36.4187 188.51 37.546 186.439 39.8005C184.367 41.994 183.331 45.2539 183.331 49.5801V74.0749H173.46V28.3757H183.331V34.2252C186.378 29.5334 191.1 27.1875 197.498 27.1875Z" fill="black"/>
<path d="M115.8 51.6823L115.8 12.1348H126.311V51.0425C126.311 55.0031 127.468 58.1411 129.784 60.4565C132.16 62.711 135.572 63.8382 140.02 63.8382C144.468 63.8382 147.85 62.711 150.166 60.4565C152.542 58.1411 153.73 55.0031 153.73 51.0425V12.135H164.241V51.6823C164.241 58.4458 161.986 63.8992 157.477 68.0426C153.029 72.0641 147.21 74.0749 140.02 74.0749C132.83 74.0749 127.011 72.0641 122.563 68.0426C118.054 63.8992 115.8 58.4458 115.8 51.6823Z" fill="black"/>
<path d="M235.124 74.0761H225.253V37.9541V28.377H235.124V37.9541V74.0761Z" fill="black"/>
<rect x="225.998" y="16.4551" width="8.38042" height="8.38042" rx="0.827722" fill="black"/>
<path d="M62.7248 0H23.3666C10.4624 0 0 10.4624 0 23.3666V62.7165C0 75.6207 10.4624 86.0831 23.3666 86.0831H62.7248C75.629 86.0831 86.0831 75.6207 86.0831 62.7165V23.3666C86.0831 10.4624 75.629 0 62.7248 0ZM66.4081 57.7502C66.4081 61.1438 63.6601 63.8919 60.2582 63.8919H60.0843C59.9436 63.9333 59.7946 63.9498 59.6456 63.9498H31.3541C27.9605 63.9498 25.2041 61.1935 25.2041 57.7998V45.3757C25.2041 44.6473 24.9724 43.9438 24.542 43.3644L14.7583 30.1705H30.6009L41.4275 43.323C41.9241 43.9272 42.1973 44.6887 42.1973 45.4668V51.5919H50.5904V45.4502C50.5904 44.6887 50.3338 43.952 49.8703 43.3644L31.1555 19.675H49.026L65.7956 43.4057C66.1929 43.9769 66.4081 44.6556 66.4081 45.3509V57.7502Z" fill="black"/>
</svg>
