<svg width="86" height="86" viewBox="0 0 86 86" fill="none" xmlns="http://www.w3.org/2000/svg">
<path d="M62.7248 0H23.3666C10.4624 0 0 10.4624 0 23.3666V62.7165C0 75.6207 10.4624 86.0831 23.3666 86.0831H62.7248C75.629 86.0831 86.0831 75.6207 86.0831 62.7165V23.3666C86.0831 10.4624 75.629 0 62.7248 0ZM66.4081 57.7502C66.4081 61.1438 63.6601 63.8919 60.2582 63.8919H60.0843C59.9436 63.9333 59.7946 63.9498 59.6456 63.9498H31.3541C27.9605 63.9498 25.2041 61.1935 25.2041 57.7998V45.3757C25.2041 44.6473 24.9724 43.9438 24.542 43.3644L14.7583 30.1705H30.6009L41.4275 43.323C41.9241 43.9272 42.1973 44.6887 42.1973 45.4668V51.5919H50.5904V45.4502C50.5904 44.6887 50.3338 43.952 49.8703 43.3644L31.1555 19.675H49.026L65.7956 43.4057C66.1929 43.9769 66.4081 44.6556 66.4081 45.3509V57.7502Z" fill="currentColor"/>
</svg>
